<svg width="1400" height="1380" viewBox="0 0 1400 1380" fill="none" xmlns="http://www.w3.org/2000/svg">
<path d="M344.556 1304.37C348.768 1304.37 352.356 1305.1 355.32 1306.56C358.336 1307.96 360.624 1309.99 362.184 1312.64C363.796 1315.29 364.602 1318.52 364.602 1322.31C364.602 1324.55 364.264 1326.76 363.588 1328.94C362.912 1331.13 361.82 1333.13 360.312 1334.95C358.856 1336.72 356.906 1338.15 354.462 1339.24C352.018 1340.28 349.054 1340.8 345.57 1340.8H337.302V1361H328.956V1304.37H344.556ZM345.57 1332.76C347.65 1332.76 349.392 1332.43 350.796 1331.75C352.2 1331.02 353.292 1330.11 354.072 1329.02C354.904 1327.93 355.476 1326.81 355.788 1325.67C356.152 1324.47 356.334 1323.4 356.334 1322.47C356.334 1321.43 356.152 1320.34 355.788 1319.19C355.476 1318 354.93 1316.9 354.15 1315.92C353.37 1314.88 352.304 1314.04 350.952 1313.42C349.6 1312.74 347.91 1312.41 345.882 1312.41H337.302V1332.76H345.57ZM377.28 1300.39H385.314V1361H377.28V1300.39ZM414.312 1361.78C411.244 1361.78 408.462 1361.16 405.966 1359.91C403.47 1358.61 401.494 1356.68 400.038 1354.14C398.582 1351.59 397.854 1348.44 397.854 1344.7C397.854 1341.01 398.608 1337.83 400.116 1335.18C401.676 1332.53 403.704 1330.5 406.2 1329.1C408.748 1327.64 411.504 1326.91 414.468 1326.91C417.588 1326.91 420.136 1327.59 422.112 1328.94C424.14 1330.24 425.726 1331.78 426.87 1333.54L426.324 1334.79L427.104 1328.32H434.514V1361H426.48V1352.81L427.338 1354.76C427.13 1355.18 426.688 1355.77 426.012 1356.55C425.336 1357.28 424.426 1358.06 423.282 1358.89C422.19 1359.73 420.89 1360.43 419.382 1361C417.926 1361.52 416.236 1361.78 414.312 1361.78ZM416.496 1355.23C418.212 1355.23 419.746 1354.92 421.098 1354.29C422.45 1353.67 423.594 1352.78 424.53 1351.64C425.466 1350.5 426.116 1349.14 426.48 1347.58V1340.8C426.064 1339.34 425.362 1338.09 424.374 1337.05C423.386 1335.96 422.19 1335.1 420.786 1334.48C419.434 1333.86 417.926 1333.54 416.262 1333.54C414.39 1333.54 412.674 1334.01 411.114 1334.95C409.554 1335.83 408.306 1337.08 407.37 1338.69C406.434 1340.3 405.966 1342.18 405.966 1344.31C405.966 1346.34 406.434 1348.18 407.37 1349.85C408.358 1351.51 409.658 1352.84 411.27 1353.82C412.882 1354.76 414.624 1355.23 416.496 1355.23ZM457.118 1328.32L457.82 1335.81L457.508 1334.79C458.6 1332.45 460.29 1330.58 462.578 1329.18C464.866 1327.72 467.57 1326.99 470.69 1326.99C473.758 1326.99 476.28 1327.9 478.256 1329.72C480.284 1331.54 481.324 1333.91 481.376 1336.82V1361H473.342V1339.63C473.29 1337.96 472.796 1336.61 471.86 1335.57C470.924 1334.48 469.468 1333.91 467.492 1333.86C465.724 1333.86 464.112 1334.4 462.656 1335.49C461.2 1336.53 460.056 1337.96 459.224 1339.78C458.392 1341.6 457.976 1343.71 457.976 1346.1V1361H449.942V1328.32H457.118ZM499.905 1313.97H507.939V1328.4H516.675V1334.71H507.939V1361H499.905V1334.71H494.133V1328.4H499.905V1313.97ZM524.647 1356.55C524.647 1355.31 525.089 1354.27 525.973 1353.43C526.909 1352.55 527.949 1352.11 529.093 1352.11C530.133 1352.11 531.095 1352.55 531.979 1353.43C532.915 1354.27 533.383 1355.31 533.383 1356.55C533.383 1357.91 532.915 1359 531.979 1359.83C531.095 1360.61 530.133 1361 529.093 1361C527.949 1361 526.909 1360.61 525.973 1359.83C525.089 1359 524.647 1357.91 524.647 1356.55ZM589.567 1304.37C595.287 1304.37 599.785 1305.54 603.061 1307.88C606.389 1310.22 608.053 1313.81 608.053 1318.65C608.053 1321.77 607.325 1324.44 605.869 1326.68C604.465 1328.92 602.489 1330.66 599.941 1331.91C597.445 1333.1 594.481 1333.78 591.049 1333.93L589.801 1329.49C593.805 1329.59 597.367 1330.29 600.487 1331.59C603.659 1332.84 606.155 1334.61 607.975 1336.9C609.847 1339.13 610.783 1341.81 610.783 1344.93C610.783 1347.79 610.237 1350.26 609.145 1352.34C608.105 1354.37 606.675 1356.03 604.855 1357.33C603.087 1358.58 601.059 1359.52 598.771 1360.14C596.535 1360.71 594.195 1361 591.751 1361H574.513V1304.37H589.567ZM591.049 1328.86C593.961 1328.86 596.093 1328.03 597.445 1326.37C598.797 1324.7 599.473 1322.73 599.473 1320.44C599.473 1317.63 598.589 1315.6 596.821 1314.36C595.105 1313.06 592.817 1312.41 589.957 1312.41H582.859V1328.86H591.049ZM591.361 1353.28C593.389 1353.28 595.209 1352.99 596.821 1352.42C598.485 1351.8 599.785 1350.89 600.721 1349.69C601.709 1348.44 602.203 1346.88 602.203 1345.01C602.203 1342.93 601.631 1341.32 600.487 1340.17C599.395 1338.98 597.965 1338.15 596.197 1337.68C594.481 1337.16 592.687 1336.9 590.815 1336.9H582.859V1353.28H591.361ZM634.965 1362.33C631.949 1362.33 629.479 1361.42 627.555 1359.6C625.631 1357.78 624.617 1355.44 624.513 1352.58V1328.32H632.547V1349.69C632.651 1351.35 633.119 1352.73 633.951 1353.82C634.835 1354.86 636.239 1355.41 638.163 1355.46C639.931 1355.46 641.491 1354.94 642.843 1353.9C644.247 1352.81 645.339 1351.35 646.119 1349.53C646.951 1347.66 647.367 1345.53 647.367 1343.14V1328.32H655.401V1361H648.147L647.523 1353.43L647.835 1354.68C647.159 1356.14 646.197 1357.46 644.949 1358.66C643.701 1359.8 642.219 1360.69 640.503 1361.31C638.787 1361.99 636.941 1362.33 634.965 1362.33ZM670.822 1328.32H678.856V1361H670.822V1328.32ZM670.354 1316.62C670.354 1315.37 670.848 1314.33 671.836 1313.5C672.824 1312.67 673.89 1312.25 675.034 1312.25C676.23 1312.25 677.296 1312.67 678.232 1313.5C679.168 1314.33 679.636 1315.37 679.636 1316.62C679.636 1317.87 679.168 1318.91 678.232 1319.74C677.296 1320.52 676.23 1320.91 675.034 1320.91C673.89 1320.91 672.824 1320.52 671.836 1319.74C670.848 1318.91 670.354 1317.87 670.354 1316.62ZM694.204 1300.39H702.238V1361H694.204V1300.39ZM730.924 1361.78C727.856 1361.78 725.1 1361.08 722.656 1359.67C720.212 1358.22 718.288 1356.16 716.884 1353.51C715.48 1350.86 714.778 1347.77 714.778 1344.23C714.778 1340.59 715.532 1337.5 717.04 1334.95C718.548 1332.35 720.576 1330.37 723.124 1329.02C725.724 1327.62 728.636 1326.91 731.86 1326.91C734.356 1326.91 736.722 1327.43 738.958 1328.47C741.246 1329.46 743.014 1330.87 744.262 1332.69L744.028 1335.42V1300.39H751.984V1361H743.95V1353.28L744.808 1355.38C743.196 1357.2 741.22 1358.74 738.88 1359.99C736.54 1361.18 733.888 1361.78 730.924 1361.78ZM733.42 1354.99C735.24 1354.99 736.852 1354.68 738.256 1354.06C739.66 1353.43 740.856 1352.55 741.844 1351.41C742.832 1350.21 743.534 1348.83 743.95 1347.27V1340.72C743.586 1339.26 742.884 1337.99 741.844 1336.9C740.856 1335.75 739.634 1334.87 738.178 1334.25C736.722 1333.62 735.136 1333.31 733.42 1333.31C731.496 1333.31 729.728 1333.78 728.116 1334.71C726.556 1335.6 725.282 1336.85 724.294 1338.46C723.358 1340.07 722.89 1341.94 722.89 1344.07C722.89 1346.1 723.358 1347.95 724.294 1349.61C725.282 1351.28 726.582 1352.6 728.194 1353.59C729.806 1354.53 731.548 1354.99 733.42 1354.99ZM763.577 1356.55C763.577 1355.31 764.019 1354.27 764.903 1353.43C765.839 1352.55 766.879 1352.11 768.023 1352.11C769.063 1352.11 770.025 1352.55 770.909 1353.43C771.845 1354.27 772.313 1355.31 772.313 1356.55C772.313 1357.91 771.845 1359 770.909 1359.83C770.025 1360.61 769.063 1361 768.023 1361C766.879 1361 765.839 1360.61 764.903 1359.83C764.019 1359 763.577 1357.91 763.577 1356.55ZM828.497 1304.37C834.217 1304.37 838.715 1305.54 841.991 1307.88C845.319 1310.22 846.983 1313.81 846.983 1318.65C846.983 1321.77 846.255 1324.44 844.799 1326.68C843.395 1328.92 841.419 1330.66 838.871 1331.91C836.375 1333.1 833.411 1333.78 829.979 1333.93L828.731 1329.49C832.735 1329.59 836.297 1330.29 839.417 1331.59C842.589 1332.84 845.085 1334.61 846.905 1336.9C848.777 1339.13 849.713 1341.81 849.713 1344.93C849.713 1347.79 849.167 1350.26 848.075 1352.34C847.035 1354.37 845.605 1356.03 843.785 1357.33C842.017 1358.58 839.989 1359.52 837.701 1360.14C835.465 1360.71 833.125 1361 830.681 1361H813.443V1304.37H828.497ZM829.979 1328.86C832.891 1328.86 835.023 1328.03 836.375 1326.37C837.727 1324.7 838.403 1322.73 838.403 1320.44C838.403 1317.63 837.519 1315.6 835.751 1314.36C834.035 1313.06 831.747 1312.41 828.887 1312.41H821.789V1328.86H829.979ZM830.291 1353.28C832.319 1353.28 834.139 1352.99 835.751 1352.42C837.415 1351.8 838.715 1350.89 839.651 1349.69C840.639 1348.44 841.133 1346.88 841.133 1345.01C841.133 1342.93 840.561 1341.32 839.417 1340.17C838.325 1338.98 836.895 1338.15 835.127 1337.68C833.411 1337.16 831.617 1336.9 829.745 1336.9H821.789V1353.28H830.291ZM863.442 1300.39H871.476V1361H863.442V1300.39ZM884.016 1344.31C884.016 1341.03 884.796 1338.09 886.356 1335.49C887.916 1332.84 890.074 1330.76 892.83 1329.25C895.586 1327.75 898.732 1326.99 902.268 1326.99C905.856 1326.99 909.002 1327.75 911.706 1329.25C914.41 1330.76 916.49 1332.84 917.946 1335.49C919.454 1338.09 920.208 1341.03 920.208 1344.31C920.208 1347.58 919.454 1350.55 917.946 1353.2C916.49 1355.85 914.41 1357.96 911.706 1359.52C909.002 1361.03 905.83 1361.78 902.19 1361.78C898.706 1361.78 895.586 1361.08 892.83 1359.67C890.126 1358.27 887.968 1356.27 886.356 1353.67C884.796 1351.02 884.016 1347.9 884.016 1344.31ZM892.128 1344.39C892.128 1346.41 892.57 1348.26 893.454 1349.92C894.338 1351.54 895.534 1352.84 897.042 1353.82C898.55 1354.76 900.24 1355.23 902.112 1355.23C904.036 1355.23 905.752 1354.76 907.26 1353.82C908.768 1352.84 909.938 1351.54 910.77 1349.92C911.654 1348.26 912.096 1346.41 912.096 1344.39C912.096 1342.36 911.654 1340.54 910.77 1338.93C909.938 1337.31 908.768 1336.01 907.26 1335.03C905.752 1334.04 904.036 1333.54 902.112 1333.54C900.188 1333.54 898.472 1334.04 896.964 1335.03C895.456 1336.01 894.26 1337.34 893.376 1339C892.544 1340.62 892.128 1342.41 892.128 1344.39ZM930.021 1344.31C930.021 1341.03 930.801 1338.09 932.361 1335.49C933.921 1332.84 936.079 1330.76 938.835 1329.25C941.591 1327.75 944.737 1326.99 948.273 1326.99C951.861 1326.99 955.007 1327.75 957.711 1329.25C960.415 1330.76 962.495 1332.84 963.951 1335.49C965.459 1338.09 966.213 1341.03 966.213 1344.31C966.213 1347.58 965.459 1350.55 963.951 1353.2C962.495 1355.85 960.415 1357.96 957.711 1359.52C955.007 1361.03 951.835 1361.78 948.195 1361.78C944.711 1361.78 941.591 1361.08 938.835 1359.67C936.131 1358.27 933.973 1356.27 932.361 1353.67C930.801 1351.02 930.021 1347.9 930.021 1344.31ZM938.133 1344.39C938.133 1346.41 938.575 1348.26 939.459 1349.92C940.343 1351.54 941.539 1352.84 943.047 1353.82C944.555 1354.76 946.245 1355.23 948.117 1355.23C950.041 1355.23 951.757 1354.76 953.265 1353.82C954.773 1352.84 955.943 1351.54 956.775 1349.92C957.659 1348.26 958.101 1346.41 958.101 1344.39C958.101 1342.36 957.659 1340.54 956.775 1338.93C955.943 1337.31 954.773 1336.01 953.265 1335.03C951.757 1334.04 950.041 1333.54 948.117 1333.54C946.193 1333.54 944.477 1334.04 942.969 1335.03C941.461 1336.01 940.265 1337.34 939.381 1339C938.549 1340.62 938.133 1342.41 938.133 1344.39ZM986.01 1328.32L986.712 1335.34L986.4 1334.79C987.648 1332.35 989.364 1330.45 991.548 1329.1C993.732 1327.69 996.254 1326.99 999.114 1326.99C1000.88 1326.99 1002.47 1327.28 1003.87 1327.85C1005.33 1328.42 1006.52 1329.23 1007.46 1330.27C1008.4 1331.31 1008.99 1332.61 1009.25 1334.17L1008.86 1334.4C1010.16 1332.11 1011.88 1330.32 1014.01 1329.02C1016.2 1327.67 1018.51 1326.99 1020.95 1326.99C1024.13 1326.99 1026.65 1327.9 1028.52 1329.72C1030.44 1331.54 1031.43 1333.88 1031.48 1336.74V1361H1023.53V1339.78C1023.48 1338.17 1023.09 1336.82 1022.36 1335.73C1021.68 1334.64 1020.46 1334.04 1018.69 1333.93C1016.82 1333.93 1015.16 1334.51 1013.7 1335.65C1012.3 1336.79 1011.2 1338.28 1010.42 1340.1C1009.64 1341.92 1009.23 1343.87 1009.18 1345.95V1361H1001.14V1339.78C1001.09 1338.17 1000.7 1336.82 999.972 1335.73C999.244 1334.64 997.97 1334.04 996.15 1333.93C994.278 1333.93 992.64 1334.51 991.236 1335.65C989.832 1336.79 988.74 1338.3 987.96 1340.17C987.232 1341.99 986.868 1343.92 986.868 1345.95V1361H978.834V1328.32H986.01ZM1043.11 1356.55C1043.11 1355.31 1043.55 1354.27 1044.43 1353.43C1045.37 1352.55 1046.41 1352.11 1047.55 1352.11C1048.59 1352.11 1049.55 1352.55 1050.44 1353.43C1051.37 1354.27 1051.84 1355.31 1051.84 1356.55C1051.84 1357.91 1051.37 1359 1050.44 1359.83C1049.55 1360.61 1048.59 1361 1047.55 1361C1046.41 1361 1045.37 1360.61 1044.43 1359.83C1043.55 1359 1043.11 1357.91 1043.11 1356.55Z" fill="#2CB6EE"/>
<mask id="mask0_208_55" style="mask-type:luminance" maskUnits="userSpaceOnUse" x="179" y="0" width="1038" height="955">
<path d="M1049.44 180.07L1062.54 187.92L1075.64 195.77V227.18L1062.54 235.03L1049.44 242.88L1036.34 235.03L1023.24 227.18V195.77L1036.34 187.92L1049.44 180.07ZM959.38 211.87L976.85 222.34L994.32 232.81V274.69L976.85 285.16L959.38 295.63L941.91 285.16L924.44 274.69V232.81L941.91 222.34L959.38 211.87ZM955.32 119.97L968.42 127.82L981.52 135.67V167.08L968.42 174.93L955.32 182.78L942.22 174.93L929.12 167.08V135.67L942.22 127.82L955.32 119.97ZM1021.24 101.49L1029.89 106.67L1038.54 111.85V132.59L1029.89 137.77L1021.24 142.95L1012.59 137.77L1003.94 132.59V111.85L1012.59 106.67L1021.24 101.49ZM1170.21 239.51L1178.86 244.69L1187.51 249.88V270.61L1178.86 275.79L1170.21 280.97L1161.56 275.79L1152.91 270.61V249.88L1161.56 244.69L1170.21 239.51ZM1182.68 465.74L1191.33 470.92L1199.98 476.1V496.84L1191.33 502.02L1182.68 507.2L1174.03 502.02L1165.38 496.84V476.1L1174.03 470.92L1182.68 465.74ZM1074.39 629.03L1083.04 634.21L1091.69 639.39V660.13L1083.04 665.31L1074.39 670.49L1065.74 665.31L1057.09 660.13V639.39L1065.74 634.21L1074.39 629.03ZM1129.95 535.88L1147.42 546.35L1164.89 556.82V598.7L1147.42 609.17L1129.95 619.64L1112.48 609.17L1095.01 598.7V556.82L1112.48 546.35L1129.95 535.88ZM968.93 369.19L986.4 379.66L1003.87 390.13V432.01L986.4 442.48L968.93 452.95L951.46 442.48L933.99 432.01V416.36H873.67L754.9 480.61H1063.49V470.2L1076.59 462.35L1089.69 454.5L1102.79 462.35L1115.89 470.2V501.61L1102.79 509.46L1089.69 517.31L1076.59 509.46L1063.49 501.61V491.2H972.93L1005.97 569.24L1012.01 565.62L1025.11 573.47L1038.21 581.32V612.73L1025.11 620.58L1012.01 628.43L998.91 620.58L985.81 612.73V581.32L996.84 574.71L961.48 491.19H739.3V745.15L775.12 782.23H917.71V792.88L917.37 792.82H785.35L848.5 858.2H991.42V868.79H844.04L842.46 867.16L739.3 760.35V828.49L850.62 943.75L843.01 951.07L730.2 834.27L728.71 830.61V482.74L731.5 481.23L869.85 406.39L872.35 405.75H933.98V390.1L951.45 379.63L968.92 369.16L968.93 369.19ZM751.21 0L761.86 6.38004L772.51 12.76V38.28L761.86 44.66L751.21 51.04L740.56 44.66L729.91 38.28V12.76L740.56 6.38004L751.21 0ZM346.38 180.08L333.28 187.93L320.18 195.78V227.19L333.28 235.04L346.38 242.89L359.48 235.04L372.58 227.19V195.78L359.48 187.93L346.38 180.08ZM436.44 211.88L418.97 222.35L401.5 232.82V274.7L418.97 285.17L436.44 295.64L453.91 285.17L471.38 274.7V232.82L453.91 222.35L436.44 211.88ZM440.5 119.98L427.4 127.83L414.3 135.68V167.09L427.4 174.94L440.5 182.79L453.6 174.94L466.7 167.09V135.68L453.6 127.83L440.5 119.98ZM374.58 101.5L365.93 106.68L357.28 111.86V132.6L365.93 137.78L374.58 142.96L383.23 137.78L391.88 132.6V111.86L383.23 106.68L374.58 101.5ZM225.61 239.52L216.96 244.7L208.31 249.89V270.62L216.96 275.8L225.61 280.98L234.26 275.8L242.91 270.62V249.89L234.26 244.7L225.61 239.52ZM205.2 367.19L192.1 375.04L179 382.89V414.3L192.1 422.15L205.2 430L218.3 422.15L231.4 414.3V382.89L218.3 375.04L205.2 367.19ZM213.14 465.75L204.49 470.93L195.84 476.11V496.85L204.49 502.03L213.14 507.21L221.79 502.03L230.44 496.85V476.11L221.79 470.93L213.14 465.75ZM321.43 629.04L312.78 634.22L304.13 639.4V660.14L312.78 665.32L321.43 670.5L330.08 665.32L338.73 660.14V639.4L330.08 634.22L321.43 629.04ZM265.87 535.89L248.4 546.36L230.93 556.83V598.71L248.4 609.18L265.87 619.65L283.34 609.18L300.81 598.71V556.83L283.34 546.36L265.87 535.89ZM426.89 369.2L409.42 379.67L391.95 390.14V432.02L409.42 442.49L426.89 452.96L444.36 442.49L461.83 432.02V416.37H522.51L641.28 480.62H332.32V470.21L319.22 462.36L306.12 454.51L293.02 462.36L279.92 470.21V501.62L293.02 509.47L306.12 517.32L319.22 509.47L332.32 501.62V491.21H422.88L389.84 569.25L383.8 565.63L370.7 573.48L357.6 581.33V612.74L370.7 620.59L383.8 628.44L396.9 620.59L410 612.74V581.33L398.97 574.72L434.33 491.2H656.88V745.16L621.06 782.24H478.47V792.89L478.81 792.83H610.83L547.68 858.21H404.76V868.8H552.14L553.72 867.17L656.89 760.36V828.5L545.57 943.76L553.18 951.08L665.99 834.28L667.48 830.62V482.75L664.69 481.24L526.34 406.4L523.84 405.76H461.84V390.11L444.37 379.64L426.9 369.17L426.89 369.2ZM644.61 0.0100098L633.96 6.38998L623.31 12.77V38.29L633.96 44.67L644.61 51.05L655.26 44.67L665.91 38.29V12.77L655.26 6.38998L644.61 0.0100098ZM703.33 538.84L703.46 867.42L780.7 947.39L773.09 954.71L697.93 876.89L622.77 954.71L615.16 947.39L692.66 867.15L692.79 538.84L692.66 214.56L665.95 214.83V230.17L648.48 240.64L631.01 251.11L613.54 240.64L596.07 230.17V188.29L613.54 177.82L631.01 167.35L648.48 177.82L665.95 188.29V204.28H729.87V188.29L747.34 177.82L764.81 167.35L782.28 177.82L799.75 188.29V230.17L782.28 240.64L764.81 251.11L747.34 240.64L729.87 230.17V214.93L703.46 214.66L703.33 538.83V538.84ZM690.6 114.4L698.23 109.83L705.86 114.4L723.53 124.99L724.44 125.53V156.94L711.34 164.79L698.24 172.64L685.14 164.79L672.04 156.94V125.53L672.95 124.99L690.62 114.4H690.6ZM1216.82 414.31V382.9L1203.72 375.05L1190.62 367.2L1177.52 375.05L1164.42 382.9V414.31L1177.52 422.16L1190.62 430.01L1203.72 422.16L1216.82 414.31ZM361.1 317.11H498.57V287.89L527.36 270.64L550.86 256.56V160.55L527.36 146.47L498.57 129.22V60.2L527.36 42.95L556.15 25.7L584.94 42.95L613.73 60.2V89.42H782.05V60.2L810.84 42.95L839.63 25.7L868.42 42.95L897.21 60.2V129.22L868.42 146.47L844.92 160.55V256.56L868.42 270.64L897.21 287.89V317.11H1034.68V287.9L1063.47 270.65L1092.26 253.4L1121.05 270.65L1149.84 287.9V356.92L1121.05 374.18L1092.26 391.43L1063.47 374.18L1034.68 356.92V327.7H897.21V356.91L868.42 374.16L839.63 391.41L810.84 374.16L782.05 356.91V287.89L810.84 270.64L834.34 256.56V160.55L810.84 146.47L782.05 129.22V100H613.73V129.22L584.94 146.47L561.44 160.55V256.56L584.94 270.64L613.73 287.89V356.91L584.94 374.16L556.15 391.41L527.36 374.16L498.57 356.91V327.7H361.1V356.92L332.31 374.18L303.52 391.43L274.73 374.18L245.94 356.92V287.9L274.73 270.65L303.52 253.4L332.31 270.65L361.1 287.9V317.11Z" fill="white"/>
</mask>
<g mask="url(#mask0_208_55)">
<path d="M1216.82 -0.0117188H178.99V954.688H1216.82V-0.0117188Z" fill="url(#paint0_linear_208_55)"/>
</g>
<path d="M53.87 1236V1052.4H80.9V1236H53.87ZM75.29 1140.63L166.325 1052.4H203.3L109.205 1140.63H75.29ZM170.405 1236L74.78 1140.63H109.205L208.4 1236H170.405ZM222.208 1236L291.313 1052.4H314.773L248.728 1236H222.208ZM364.243 1236L298.198 1052.4H322.933L392.293 1236H364.243ZM257.143 1162.81H355.573V1185.25H257.143V1162.81ZM419.436 1236V1052.4H446.466V1236H419.436ZM432.696 1236V1213.81H538.776V1236H432.696ZM569.598 1236V1052.4H647.373C660.633 1052.4 671.938 1054.61 681.288 1059.03C690.638 1063.45 697.778 1069.74 702.708 1077.9C707.808 1086.06 710.358 1095.75 710.358 1106.97C710.358 1118.36 707.808 1128.22 702.708 1136.55C697.778 1144.71 690.553 1151.08 681.033 1155.67C671.683 1160.26 660.463 1162.56 647.373 1162.56H590.253V1140.12H646.098C658.168 1140.12 667.348 1137.23 673.638 1131.45C680.098 1125.67 683.328 1117.59 683.328 1107.23C683.328 1096.68 680.183 1088.61 673.893 1083C667.603 1077.39 658.338 1074.58 646.098 1074.58H596.628V1236H569.598ZM783.216 1236V1074.58H721.251V1052.4H872.211V1074.58H810.246V1236H783.216ZM895.065 1236V1052.4H967.485C980.745 1052.4 992.05 1054.61 1001.4 1059.03C1010.75 1063.28 1017.98 1069.31 1023.08 1077.13C1028.18 1084.78 1030.73 1093.88 1030.73 1104.42C1030.73 1114.96 1028.18 1124.14 1023.08 1131.96C1017.98 1139.78 1010.75 1145.9 1001.4 1150.32C992.05 1154.74 980.745 1156.95 967.485 1156.95H915.465V1135.02H966.72C978.96 1135.02 988.225 1132.38 994.515 1127.11C1000.98 1121.67 1004.21 1114.19 1004.21 1104.67C1004.21 1095.15 1001.06 1087.76 994.77 1082.49C988.48 1077.22 979.13 1074.58 966.72 1074.58H922.095V1236H895.065ZM1001.15 1236L911.64 1143.43H944.535L1039.91 1236H1001.15ZM1063.66 1236V1052.4H1090.69V1236H1063.66ZM1076.92 1236V1213.81H1191.16V1236H1076.92ZM1076.92 1152.1V1129.92H1181.98V1152.1H1076.92ZM1076.92 1074.58V1052.4H1188.87V1074.58H1076.92ZM1225.28 1236V1052.4H1252.31V1236H1225.28ZM1238.54 1236V1213.81H1352.78V1236H1238.54ZM1238.54 1152.1V1129.92H1343.6V1152.1H1238.54ZM1238.54 1074.58V1052.4H1350.48V1074.58H1238.54Z" fill="black"/>
<defs>
<linearGradient id="paint0_linear_208_55" x1="982.34" y1="223.958" x2="510.74" y2="644.068" gradientUnits="userSpaceOnUse">
<stop stop-color="#1DC3F3"/>
<stop offset="1" stop-color="#F300A6"/>
</linearGradient>
</defs>
</svg>
