<svg width="491" height="451" viewBox="0 0 491 451" fill="none" xmlns="http://www.w3.org/2000/svg">
<mask id="mask0_207_46" style="mask-type:luminance" maskUnits="userSpaceOnUse" x="0" y="0" width="491" height="451">
<path d="M411.191 85.0641L417.38 88.7724L423.568 92.4807V107.319L417.38 111.027L411.191 114.735L405.003 111.027L398.815 107.319V92.4807L405.003 88.7724L411.191 85.0641ZM368.647 100.086L376.9 105.032L385.153 109.978V129.762L376.9 134.708L368.647 139.654L360.395 134.708L352.142 129.762V109.978L360.395 105.032L368.647 100.086ZM366.73 56.6732L372.918 60.3815L379.106 64.0898V78.9277L372.918 82.636L366.73 86.3443L360.541 82.636L354.353 78.9277V64.0898L360.541 60.3815L366.73 56.6732ZM397.87 47.9434L401.956 50.3904L406.042 52.8374V62.6348L401.956 65.0818L397.87 67.5288L393.784 65.0818L389.697 62.6348V52.8374L393.784 50.3904L397.87 47.9434ZM468.242 113.143L472.329 115.59L476.415 118.042V127.835L472.329 130.282L468.242 132.729L464.156 130.282L460.07 127.835V118.042L464.156 115.59L468.242 113.143ZM474.133 220.013L478.219 222.46L482.306 224.907V234.705L478.219 237.152L474.133 239.599L470.047 237.152L465.961 234.705V224.907L470.047 222.46L474.133 220.013ZM422.978 297.15L427.064 299.597L431.15 302.044V311.842L427.064 314.289L422.978 316.736L418.891 314.289L414.805 311.842V302.044L418.891 299.597L422.978 297.15ZM449.224 253.147L457.477 258.093L465.729 263.039V282.823L457.477 287.769L449.224 292.715L440.971 287.769L432.718 282.823V263.039L440.971 258.093L449.224 253.147ZM373.159 174.403L381.412 179.349L389.664 184.295V204.079L381.412 209.025L373.159 213.971L364.906 209.025L356.653 204.079V196.686H328.158L272.052 227.038H417.828V222.12L424.017 218.412L430.205 214.703L436.394 218.412L442.582 222.12V236.958L436.394 240.666L430.205 244.375L424.017 240.666L417.828 236.958V232.04H375.048L390.656 268.906L393.51 267.196L399.698 270.904L405.886 274.612V289.45L399.698 293.159L393.51 296.867L387.321 293.159L381.133 289.45V274.612L386.343 271.49L369.639 232.036H264.683V352.005L281.604 369.521H348.963V374.552L348.802 374.524H286.437L316.268 405.409H383.783V410.412H314.161L313.415 409.642L264.683 359.185V391.374L317.27 445.823L313.675 449.28L260.384 394.105L259.68 392.376V228.044L260.998 227.331L326.354 191.977L327.535 191.674H356.649V184.281L364.901 179.335L373.154 174.389L373.159 174.403ZM270.309 0L275.34 3.0139L280.371 6.02775V18.0833L275.34 21.0972L270.309 24.111L265.278 21.0972L260.247 18.0833V6.02775L265.278 3.0139L270.309 0ZM79.0694 85.0688L72.8811 88.7772L66.6927 92.4854V107.323L72.8811 111.032L79.0694 114.74L85.2578 111.032L91.4462 107.323V92.4854L85.2578 88.7772L79.0694 85.0688ZM121.613 100.091L113.361 105.037L105.108 109.983V129.767L113.361 134.713L121.613 139.659L129.866 134.713L138.119 129.767V109.983L129.866 105.037L121.613 100.091ZM123.531 56.6779L117.343 60.3862L111.155 64.0945V78.9324L117.343 82.6408L123.531 86.349L129.72 82.6408L135.908 78.9324V64.0945L129.72 60.3862L123.531 56.6779ZM92.391 47.9481L88.3048 50.3951L84.2186 52.8421V62.6395L88.3048 65.0866L92.391 67.5336L96.4772 65.0866L100.563 62.6395V52.8421L96.4772 50.3951L92.391 47.9481ZM22.0183 113.148L17.9321 115.595L13.8459 118.047V127.839L17.9321 130.286L22.0183 132.733L26.1045 130.286L30.1908 127.839V118.047L26.1045 115.595L22.0183 113.148ZM12.3767 173.459L6.18839 177.167L0 180.875V195.713L6.18839 199.421L12.3767 203.13L18.5651 199.421L24.7535 195.713V180.875L18.5651 177.167L12.3767 173.459ZM16.1276 220.018L12.0414 222.465L7.95514 224.912V234.709L12.0414 237.156L16.1276 239.603L20.2138 237.156L24.3 234.709V224.912L20.2138 222.465L16.1276 220.018ZM67.2832 297.155L63.197 299.602L59.1108 302.049V311.847L63.197 314.294L67.2832 316.741L71.3694 314.294L75.4556 311.847V302.049L71.3694 299.602L67.2832 297.155ZM41.0369 253.152L32.7842 258.098L24.5315 263.044V282.827L32.7842 287.773L41.0369 292.719L49.2897 287.773L57.5424 282.827V263.044L49.2897 258.098L41.0369 253.152ZM117.102 174.408L108.849 179.354L100.596 184.3V204.084L108.849 209.03L117.102 213.976L125.355 209.03L133.607 204.084V196.691H162.272L218.379 227.042H72.4276V222.125L66.2392 218.416L60.0508 214.708L53.8625 218.416L47.6741 222.125V236.963L53.8625 240.671L60.0508 244.379L66.2392 240.671L72.4276 236.963V232.045H115.208L99.5997 268.911L96.7465 267.201L90.5581 270.909L84.3697 274.617V289.455L90.5581 293.163L96.7465 296.872L102.935 293.163L109.123 289.455V274.617L103.913 271.495L120.617 232.04H225.748V352.01L208.827 369.526H141.468V374.557L141.629 374.529H203.994L174.163 405.414H106.648V410.417H176.269L177.016 409.647L225.753 359.19V391.379L173.166 445.827L176.761 449.285L230.052 394.11L230.755 392.381V228.049L229.437 227.335L164.082 191.981L162.901 191.679H133.612V184.286L125.359 179.34L117.107 174.394L117.102 174.408ZM219.952 0.00472856L214.921 3.0186L209.89 6.03248V18.088L214.921 21.1019L219.952 24.1158L224.983 21.1019L230.014 18.088V6.03248L224.983 3.0186L219.952 0.00472856ZM247.691 254.545L247.752 409.765L284.24 447.542L280.645 451L245.14 414.238L209.635 451L206.04 447.542L242.65 409.637L242.712 254.545L242.65 101.357L230.033 101.485V108.731L221.78 113.677L213.527 118.623L205.274 113.677L197.022 108.731V88.9472L205.274 84.0012L213.527 79.0553L221.78 84.0012L230.033 88.9472V96.5008H260.228V88.9472L268.481 84.0012L276.734 79.0553L284.986 84.0012L293.239 88.9472V108.731L284.986 113.677L276.734 118.623L268.481 113.677L260.228 108.731V101.532L247.752 101.404L247.691 254.54V254.545ZM241.677 54.042L245.282 51.8831L248.886 54.042L257.233 59.0446L257.663 59.2997V74.1376L251.475 77.8459L245.286 81.5542L239.098 77.8459L232.91 74.1376V59.2997L233.339 59.0446L241.687 54.042H241.677ZM490.261 195.718V180.88L484.072 177.172L477.884 173.463L471.696 177.172L465.507 180.88V195.718L471.696 199.426L477.884 203.134L484.072 199.426L490.261 195.718ZM86.0231 149.801H150.963V135.998L164.563 127.849L175.665 121.198V75.843L164.563 69.1917L150.963 61.0429V28.4382L164.563 20.2893L178.164 12.1405L191.764 20.2893L205.364 28.4382V42.2415H284.878V28.4382L298.478 20.2893L312.078 12.1405L325.678 20.2893L339.279 28.4382V61.0429L325.678 69.1917L314.577 75.843V121.198L325.678 127.849L339.279 135.998V149.801H404.219V136.002L417.819 127.854L431.419 119.705L445.02 127.854L458.62 136.002V168.607L445.02 176.761L431.419 184.909L417.819 176.761L404.219 168.607V154.804H339.279V168.602L325.678 176.751L312.078 184.9L298.478 176.751L284.878 168.602V135.998L298.478 127.849L309.579 121.198V75.843L298.478 69.1917L284.878 61.0429V47.2395H205.364V61.0429L191.764 69.1917L180.663 75.843V121.198L191.764 127.849L205.364 135.998V168.602L191.764 176.751L178.164 184.9L164.563 176.751L150.963 168.602V154.804H86.0231V168.607L72.4228 176.761L58.8226 184.909L45.2224 176.761L31.6221 168.607V136.002L45.2224 127.854L58.8226 119.705L72.4228 127.854L86.0231 136.002V149.801Z" fill="white"/>
</mask>
<g mask="url(#mask0_207_46)">
<path d="M490.261 -0.0078125H-0.00488281V450.987H490.261V-0.0078125Z" fill="url(#paint0_linear_207_46)"/>
</g>
<defs>
<linearGradient id="paint0_linear_207_46" x1="379.494" y1="105.794" x2="156.712" y2="304.252" gradientUnits="userSpaceOnUse">
<stop stop-color="#1DC3F3"/>
<stop offset="1" stop-color="#F300A6"/>
</linearGradient>
</defs>
</svg>
